<?xml version="1.0" standalone="no"?>
<!DOCTYPE svg PUBLIC "-//W3C//DTD SVG 20010904//EN"
 "http://www.w3.org/TR/2001/REC-SVG-20010904/DTD/svg10.dtd">
<svg version="1.0" xmlns="http://www.w3.org/2000/svg"
 width="512.000000pt" height="512.000000pt" viewBox="0 0 512.000000 512.000000"
 preserveAspectRatio="xMidYMid meet">

<g transform="translate(0.000000,512.000000) scale(0.100000,-0.100000)"
fill="#1a2238" stroke="none">
<path d="M647 4676 c-55 -20 -113 -63 -148 -110 -63 -86 -59 42 -57 -2026 l3
-1885 21 -46 c26 -57 88 -120 146 -151 l43 -23 1905 0 1905 0 43 23 c58 31
114 88 143 148 l24 49 0 1905 0 1905 -21 46 c-26 57 -88 120 -146 151 l-43 23
-1890 2 c-1573 2 -1896 0 -1928 -11z m937 -729 c68 -31 131 -96 165 -167 21
-45 25 -70 25 -135 0 -134 -58 -233 -176 -295 -53 -28 -76 -35 -144 -38 -144
-8 -251 41 -322 148 -66 99 -76 210 -28 325 17 41 86 117 131 145 89 55 248
63 349 17z m1961 -890 c112 -37 197 -90 274 -173 74 -79 119 -156 157 -267 51
-148 54 -203 54 -875 l0 -622 -317 2 -318 3 -5 595 c-6 630 -6 631 -55 716
-56 97 -132 137 -260 138 -80 1 -97 -2 -149 -28 -76 -37 -140 -101 -174 -174
l-27 -57 -3 -597 -3 -598 -319 0 -320 0 0 960 0 960 320 0 320 0 0 -131 0
-131 43 59 c60 81 127 136 224 185 119 59 164 68 333 64 123 -3 157 -7 225
-29z m-1817 -974 l-3 -958 -317 -3 -318 -2 0 960 0 960 320 0 320 0 -2 -957z"/>
</g>
</svg>
