<?xml version="1.0" encoding="UTF-8"?>
<!DOCTYPE svg PUBLIC "-//W3C//DTD SVG 1.1//EN" "http://www.w3.org/Graphics/SVG/1.1/DTD/svg11.dtd">
<svg xmlns="http://www.w3.org/2000/svg" version="1.1" width="256px" height="256px" style="shape-rendering:geometricPrecision; text-rendering:geometricPrecision; image-rendering:optimizeQuality; fill-rule:evenodd; clip-rule:evenodd" xmlns:xlink="http://www.w3.org/1999/xlink">
<g><path style="opacity:0.977" fill="#1a2238" d="M 44.5,-0.5 C 49.1667,-0.5 53.8333,-0.5 58.5,-0.5C 68.6553,16.4723 78.822,33.4723 89,50.5C 94.2978,57.1311 94.2978,63.4644 89,69.5C 80.9633,77.2055 72.63,84.5388 64,91.5C 63.3848,93.1161 62.3848,94.4495 61,95.5C 60.3333,97.5 60.3333,99.5 61,101.5C 80.5,143.667 111.333,174.5 153.5,194C 155.5,194.667 157.5,194.667 159.5,194C 160.551,192.615 161.884,191.615 163.5,191C 170.461,182.37 177.795,174.037 185.5,166C 187.803,163.866 190.469,162.366 193.5,161.5C 197.384,162.441 201.051,163.941 204.5,166C 221.528,176.178 238.528,186.345 255.5,196.5C 255.5,201.167 255.5,205.833 255.5,210.5C 254.17,221.294 249.504,230.461 241.5,238C 230.373,246.565 218.04,252.399 204.5,255.5C 197.167,255.5 189.833,255.5 182.5,255.5C 152.208,248.189 124.208,235.689 98.5,218C 70.8348,197.004 47.3348,172.171 28,143.5C 15.4355,120.954 5.93553,97.2876 -0.5,72.5C -0.5,65.1667 -0.5,57.8333 -0.5,50.5C 3.16737,33.6698 11.1674,19.1698 23.5,7C 30.2948,3.57099 37.2948,1.07099 44.5,-0.5 Z"/></g>
</svg>
