<?xml version="1.0" standalone="no"?>
<!DOCTYPE svg PUBLIC "-//W3C//DTD SVG 20010904//EN"
 "http://www.w3.org/TR/2001/REC-SVG-20010904/DTD/svg10.dtd">
<svg version="1.0" xmlns="http://www.w3.org/2000/svg"
 width="256.000000pt" height="256.000000pt" viewBox="0 0 256.000000 256.000000"
 preserveAspectRatio="xMidYMid meet">

<g transform="translate(0.000000,256.000000) scale(0.100000,-0.100000)"
fill="#1a2238" stroke="none">
<path d="M286 2538 c-14 -20 -16 -156 -16 -1258 0 -1102 2 -1238 16 -1258 l15
-22 979 0 979 0 15 22 c14 20 16 126 16 947 l0 925 -332 333 -333 333 -662 0
-662 0 -15 -22z m1274 -364 c0 -184 4 -303 10 -315 10 -18 24 -19 315 -19
l305 0 0 -875 0 -875 -910 0 -910 0 0 1190 0 1190 595 0 595 0 0 -296z m335
-14 l230 -230 -233 0 -232 0 0 230 c0 127 1 230 3 230 1 0 106 -103 232 -230z"/>
<path d="M885 2271 c-155 -72 -151 -289 7 -356 160 -66 322 102 249 260 -46
99 -158 141 -256 96z m120 -86 c98 -47 64 -190 -45 -187 -103 3 -132 146 -38
187 42 18 44 18 83 0z"/>
<path d="M815 1846 c-40 -18 -85 -63 -101 -103 -8 -18 -14 -66 -14 -108 0 -70
2 -76 24 -86 17 -8 29 -8 43 0 17 8 21 24 25 86 4 66 9 80 32 103 26 26 30 27
141 27 111 0 115 -1 141 -27 23 -23 28 -37 32 -103 4 -62 8 -78 25 -86 14 -8
26 -8 43 0 22 10 24 16 24 88 0 95 -23 149 -82 189 -40 28 -46 29 -172 32 -94
1 -140 -2 -161 -12z"/>
<path d="M712 1238 c-15 -15 -15 -51 0 -66 17 -17 1119 -17 1136 0 15 15 15
51 0 66 -17 17 -1119 17 -1136 0z"/>
<path d="M712 888 c-18 -18 -14 -56 7 -68 27 -14 1095 -14 1122 0 21 12 25 50
7 68 -17 17 -1119 17 -1136 0z"/>
<path d="M730 547 c-31 -16 -39 -56 -14 -74 26 -19 1102 -19 1128 0 25 18 17
58 -14 74 -36 18 -1064 18 -1100 0z"/>
</g>
</svg>
