<?xml version="1.0" standalone="no"?>
<!DOCTYPE svg PUBLIC "-//W3C//DTD SVG 20010904//EN"
 "http://www.w3.org/TR/2001/REC-SVG-20010904/DTD/svg10.dtd">
<svg version="1.0" xmlns="http://www.w3.org/2000/svg"
 width="256.000000pt" height="256.000000pt" viewBox="0 0 256.000000 256.000000"
 preserveAspectRatio="xMidYMid meet">

<g transform="translate(0.000000,256.000000) scale(0.100000,-0.100000)"
fill="#1a2238" stroke="none">
<path d="M192 2225 c-23 -7 -58 -25 -78 -40 -39 -30 -94 -101 -94 -122 0 -7
263 -188 584 -402 490 -327 591 -391 630 -396 106 -16 93 -23 722 396 321 214
584 395 584 402 0 21 -55 92 -94 122 -74 57 -39 55 -1170 54 -839 0 -1049 -3
-1084 -14z"/>
<path d="M0 1222 c0 -761 -3 -730 84 -818 90 -90 11 -84 1196 -84 1185 0 1106
-6 1196 85 88 87 85 57 82 818 l-3 657 -549 -366 c-302 -201 -567 -373 -590
-381 -22 -8 -75 -17 -116 -20 -131 -9 -136 -6 -735 393 -297 198 -546 364
-552 368 -10 6 -13 -127 -13 -652z"/>
</g>
</svg>
