<?xml version="1.0" standalone="no"?>
<!DOCTYPE svg PUBLIC "-//W3C//DTD SVG 20010904//EN"
 "http://www.w3.org/TR/2001/REC-SVG-20010904/DTD/svg10.dtd">
<svg version="1.0" xmlns="http://www.w3.org/2000/svg"
 width="512.000000pt" height="512.000000pt" viewBox="0 0 512.000000 512.000000"
 preserveAspectRatio="xMidYMid meet">

<g transform="translate(0.000000,512.000000) scale(0.100000,-0.100000)"
fill="#1a2238" stroke="none">
<path d="M2365 5113 c-493 -42 -951 -216 -1343 -510 -221 -166 -432 -389 -587
-623 -221 -332 -347 -663 -412 -1080 -24 -155 -24 -546 0 -703 116 -756 511
-1380 1137 -1798 206 -137 541 -289 638 -289 60 0 106 32 121 84 5 18 6 133 3
255 -5 220 -5 222 -26 217 -12 -3 -69 -11 -127 -17 -193 -21 -365 15 -499 106
-98 67 -158 143 -215 273 -78 179 -156 281 -277 363 -102 70 -124 119 -63 145
43 18 85 18 151 0 125 -33 223 -112 325 -262 111 -163 201 -229 353 -260 93
-19 203 -9 313 28 l68 24 21 79 c23 89 62 171 107 228 16 21 28 39 26 41 -2 2
-44 8 -92 15 -129 17 -299 63 -410 109 -446 187 -663 583 -644 1176 4 134 9
176 31 251 35 119 93 235 166 334 55 74 59 83 49 108 -21 55 -39 176 -39 265
0 94 28 253 58 336 17 46 18 47 66 50 129 8 351 -74 569 -212 l88 -55 102 24
c336 80 738 80 1074 0 l103 -25 67 44 c222 143 457 232 589 224 48 -3 49 -4
66 -50 10 -27 27 -94 39 -150 27 -130 23 -316 -9 -417 l-21 -63 55 -72 c68
-88 135 -222 171 -341 26 -87 27 -99 27 -315 0 -244 -14 -343 -71 -510 -108
-317 -330 -528 -672 -640 -90 -29 -257 -65 -353 -76 l-57 -7 39 -51 c45 -60
82 -136 106 -221 15 -51 18 -126 23 -518 l6 -459 33 -29 c62 -55 161 -34 421
92 256 123 472 273 670 464 422 409 677 906 768 1502 24 157 24 548 0 703 -39
254 -105 485 -199 696 -412 930 -1349 1535 -2358 1522 -74 -1 -153 -3 -175 -5z"/>
</g>
</svg>
